<svg width="65" height="55" viewBox="0 0 65 55" fill="none" xmlns="http://www.w3.org/2000/svg">
<path d="M18.0556 48.125C15.1667 48.125 12.2778 45.7188 10.8333 44.6875C3.61111 39.875 1.44444 38.1562 0 37.125V51.5625C0 53.4606 1.6171 55 3.61111 55H32.5C34.494 55 36.1111 53.4606 36.1111 51.5625V37.125C34.6667 38.1562 32.5 39.875 25.2778 44.6875C23.8333 45.7188 20.9444 48.125 18.0556 48.125ZM32.5 27.5H3.61111C1.6171 27.5 0 29.0394 0 30.9375V32.6562C2.88889 34.7188 2.52778 34.7188 13 41.9375C14.0833 42.625 16.25 44.6875 18.0556 44.6875C19.8611 44.6875 22.0278 42.625 23.1111 42.2812C33.5833 35.0625 33.2222 35.0625 36.1111 33V30.9375C36.1111 29.0394 34.494 27.5 32.5 27.5ZM61.3889 17.1875H25.2778C23.2838 17.1875 21.6667 18.7269 21.6667 20.625V24.0625H32.5C36.2477 24.0625 39.3374 26.7932 39.6895 30.2736L39.7222 30.25V44.6875H61.3889C63.3829 44.6875 65 43.1481 65 41.25V20.625C65 18.7269 63.3829 17.1875 61.3889 17.1875ZM57.7778 30.9375H50.5556V24.0625H57.7778V30.9375ZM18.0556 20.625C18.0556 16.8341 21.2954 13.75 25.2778 13.75H50.5556V3.4375C50.5556 1.53936 48.9385 0 46.9444 0H10.8333C8.83932 0 7.22222 1.53936 7.22222 3.4375V24.0625H18.0556V20.625Z" fill="black"/>
</svg>
