<svg width="65" height="50" viewBox="0 0 65 50" fill="none" xmlns="http://www.w3.org/2000/svg">
<path d="M59.5833 0H5.41667C2.42622 0 0 2.39955 0 5.35714V44.6429C0 47.6004 2.42622 50 5.41667 50H59.5833C62.5738 50 65 47.6004 65 44.6429V5.35714C65 2.39955 62.5738 0 59.5833 0ZM19.8611 10.7143C23.8446 10.7143 27.0833 13.9174 27.0833 17.8571C27.0833 21.7969 23.8446 25 19.8611 25C15.8776 25 12.6389 21.7969 12.6389 17.8571C12.6389 13.9174 15.8776 10.7143 19.8611 10.7143ZM32.5 37.1429C32.5 38.3259 31.3715 39.2857 29.9722 39.2857H9.75C8.35069 39.2857 7.22222 38.3259 7.22222 37.1429V35C7.22222 31.4509 10.6189 28.5714 14.8056 28.5714H15.3698C16.7578 29.1406 18.27 29.4643 19.8611 29.4643C21.4523 29.4643 22.9757 29.1406 24.3524 28.5714H24.9167C29.1033 28.5714 32.5 31.4509 32.5 35V37.1429ZM57.7778 31.25C57.7778 31.7411 57.3715 32.1429 56.875 32.1429H40.625C40.1285 32.1429 39.7222 31.7411 39.7222 31.25V29.4643C39.7222 28.9732 40.1285 28.5714 40.625 28.5714H56.875C57.3715 28.5714 57.7778 28.9732 57.7778 29.4643V31.25ZM57.7778 24.1071C57.7778 24.5982 57.3715 25 56.875 25H40.625C40.1285 25 39.7222 24.5982 39.7222 24.1071V22.3214C39.7222 21.8304 40.1285 21.4286 40.625 21.4286H56.875C57.3715 21.4286 57.7778 21.8304 57.7778 22.3214V24.1071ZM57.7778 16.9643C57.7778 17.4554 57.3715 17.8571 56.875 17.8571H40.625C40.1285 17.8571 39.7222 17.4554 39.7222 16.9643V15.1786C39.7222 14.6875 40.1285 14.2857 40.625 14.2857H56.875C57.3715 14.2857 57.7778 14.6875 57.7778 15.1786V16.9643Z" fill="black"/>
</svg>
