<svg width="60" height="60" viewBox="0 0 60 60" fill="none" xmlns="http://www.w3.org/2000/svg">
<path d="M30 48.75C43.4648 48.75 54.375 37.8398 54.375 24.375C54.375 10.9102 43.4648 0 30 0C16.5352 0 5.625 10.9102 5.625 24.375C5.625 37.8398 16.5352 48.75 30 48.75ZM27.3984 11.4141V9.44531C27.3984 8.36719 28.2656 7.5 29.3438 7.5H30.6445C31.7227 7.5 32.5898 8.36719 32.5898 9.44531V11.4375C34.4062 11.5312 36.1641 12.1523 37.6289 13.2422C38.2852 13.7227 38.3555 14.6836 37.7695 15.2461L35.8594 17.0625C35.4141 17.4961 34.7461 17.5078 34.2188 17.1797C33.5859 16.7812 32.8828 16.582 32.1328 16.582H27.5742C26.5195 16.582 25.6641 17.543 25.6641 18.7266C25.6641 19.6875 26.25 20.543 27.082 20.7891L34.3828 22.9805C37.3945 23.8828 39.5039 26.7773 39.5039 30.0234C39.5039 34.0078 36.4102 37.2305 32.5781 37.3359V39.3047C32.5781 40.3828 31.7109 41.25 30.6328 41.25H29.332C28.2539 41.25 27.3867 40.3828 27.3867 39.3047V37.3125C25.5703 37.2188 23.8125 36.5977 22.3477 35.5078C21.6914 35.0273 21.6211 34.0664 22.207 33.5039L24.1172 31.6875C24.5625 31.2539 25.2305 31.2422 25.7578 31.5703C26.3906 31.9688 27.0938 32.168 27.8438 32.168H32.4023C33.457 32.168 34.3125 31.207 34.3125 30.0234C34.3125 29.0625 33.7266 28.207 32.8945 27.9609L25.5938 25.7695C22.582 24.8672 20.4727 21.9727 20.4727 18.7266C20.4844 14.7422 23.5664 11.5195 27.3984 11.4141ZM56.25 41.25H52.4414C50.1445 44.2969 47.2148 46.8398 43.8867 48.75H51.3633C51.9844 48.75 52.4883 49.1719 52.4883 49.6875V51.5625C52.4883 52.0781 51.9844 52.5 51.3633 52.5H8.625C8.00391 52.5 7.5 52.0781 7.5 51.5625V49.6875C7.5 49.1719 8.00391 48.75 8.625 48.75H16.1016C12.7734 46.8398 9.85547 44.2969 7.54688 41.25H3.75C1.67578 41.25 0 42.9258 0 45V56.25C0 58.3242 1.67578 60 3.75 60H56.25C58.3242 60 60 58.3242 60 56.25V45C60 42.9258 58.3242 41.25 56.25 41.25Z" fill="black"/>
</svg>
