<svg width="75" height="75" viewBox="0 0 75 75" fill="none" xmlns="http://www.w3.org/2000/svg">
<path d="M65.625 4.6875H9.36035C6.78223 4.6875 4.6875 6.81152 4.6875 9.41895V65.5811C4.6875 68.1885 6.78223 70.3125 9.36035 70.3125H65.625C68.2031 70.3125 70.3125 68.1885 70.3125 65.5811V9.41895C70.3125 6.81152 68.2031 4.6875 65.625 4.6875ZM24.5215 60.9375H14.7949V29.6191H24.5361V60.9375H24.5215ZM19.6582 25.3418C16.5381 25.3418 14.0186 22.8076 14.0186 19.7021C14.0186 16.5967 16.5381 14.0625 19.6582 14.0625C22.7637 14.0625 25.2979 16.5967 25.2979 19.7021C25.2979 22.8223 22.7783 25.3418 19.6582 25.3418ZM60.9814 60.9375H51.2549V45.7031C51.2549 42.0703 51.1816 37.3975 46.2012 37.3975C41.1328 37.3975 40.3564 41.3525 40.3564 45.4395V60.9375H30.6299V29.6191H39.9609V33.8965H40.0928C41.3965 31.4355 44.5752 28.8428 49.3066 28.8428C59.1504 28.8428 60.9814 35.332 60.9814 43.7695V60.9375Z" fill="black"/>
</svg>
